<?xml version="1.0" encoding="utf-8"?>
<svg xmlns="http://www.w3.org/2000/svg" height="32px" width="32px" version="1.1" viewBox="0 0 32 32">
  <path fill="#f7931a" d="M 31.525 19.872 C 29.388 28.445 20.705 33.662 12.132 31.524 C 3.562 29.387 -1.655 20.704 0.483 12.132 C 2.619 3.559 11.302 -1.659 19.873 0.478 C 28.446 2.615 33.662 11.299 31.525 19.872 Z"/>
  <path fill="#FFF" d="M 23.059 13.722 C 23.378 11.592 21.756 10.448 19.54 9.684 L 20.259 6.8 L 18.503 6.362 L 17.803 9.171 C 17.341 9.056 16.867 8.947 16.396 8.84 L 17.101 6.013 L 15.347 5.575 L 14.627 8.459 C 14.245 8.372 13.87 8.286 13.506 8.195 L 13.508 8.186 L 11.087 7.581 L 10.62 9.457 C 10.62 9.457 11.922 9.755 11.895 9.774 C 12.606 9.951 12.734 10.422 12.713 10.795 L 11.894 14.081 C 11.943 14.093 12.006 14.111 12.076 14.139 C 12.018 14.125 11.955 14.109 11.891 14.093 L 10.743 18.696 C 10.656 18.912 10.435 19.236 9.938 19.113 C 9.956 19.139 8.662 18.795 8.662 18.795 L 7.79 20.804 L 10.075 21.374 C 10.5 21.48 10.917 21.592 11.327 21.697 L 10.6 24.614 L 12.354 25.052 L 13.073 22.166 C 13.553 22.296 14.018 22.416 14.473 22.529 L 13.756 25.401 L 15.511 25.839 L 16.238 22.927 C 19.232 23.494 21.483 23.265 22.43 20.557 C 23.194 18.377 22.392 17.119 20.817 16.299 C 21.964 16.035 22.829 15.28 23.059 13.722 L 23.059 13.722 Z M 19.048 19.347 C 18.505 21.527 14.834 20.348 13.644 20.053 L 14.608 16.188 C 15.798 16.485 19.615 17.073 19.048 19.347 Z M 19.591 13.69 C 19.096 15.673 16.04 14.666 15.049 14.419 L 15.923 10.913 C 16.914 11.16 20.106 11.621 19.591 13.69 L 19.591 13.69 Z"/>
</svg>